<?xml version="1.0" encoding="utf-8"?>
<!-- Generator: Adobe Illustrator 16.0.0, SVG Export Plug-In . SVG Version: 6.00 Build 0)  -->
<!DOCTYPE svg PUBLIC "-//W3C//DTD SVG 1.1//EN" "http://www.w3.org/Graphics/SVG/1.1/DTD/svg11.dtd">
<svg version="1.1" xmlns="http://www.w3.org/2000/svg" xmlns:xlink="http://www.w3.org/1999/xlink" x="0px" y="0px" width="16.8px"
	 height="10.56px" viewBox="0 0 16.8 10.56" enable-background="new 0 0 16.8 10.56" xml:space="preserve">
<g id="Group_1_copy_1_">
	<g id="Rounded_Rectangle_1_copy">
		<g>
			<path fill="#C9BB9E" d="M15.84,0H0.96C0.43,0,0,0.43,0,0.96V9.6c0,0.53,0.43,0.96,0.96,0.96h14.88c0.529,0,0.96-0.43,0.96-0.96
				V0.96C16.8,0.43,16.37,0,15.84,0z"/>
		</g>
	</g>
	<g id="Rectangle_1">
		<g>
			<rect x="0.48" y="0.48" fill="#FFFFFF" width="15.84" height="3.365"/>
		</g>
	</g>
	<g id="Rectangle_1_copy">
		<g>
			<rect x="0.48" y="3.845" fill="#6369F3" width="15.84" height="3.35"/>
		</g>
	</g>
	<g id="Rectangle_1_copy_2">
		<g>
			<rect x="0.48" y="7.195" fill="#F55E5F" width="15.84" height="2.885"/>
		</g>
	</g>
</g>
<g id="Group_1_1_" display="none">
	<g id="Rounded_Rectangle_1_copy_1_" display="inline">
		<g>
			<path fill="#C6C6C6" d="M15.84,0H0.96C0.43,0,0,0.43,0,0.96V9.6c0,0.53,0.43,0.96,0.96,0.96h14.88c0.529,0,0.96-0.43,0.96-0.96
				V0.96C16.8,0.43,16.37,0,15.84,0z"/>
		</g>
	</g>
	<g id="Rectangle_1_1_" display="inline">
		<g>
			<rect x="0.48" y="0.48" fill="#FFFFFF" width="15.84" height="3.365"/>
		</g>
	</g>
	<g id="Rectangle_1_copy_1_" display="inline">
		<g>
			<rect x="0.48" y="3.845" fill="#727272" width="15.84" height="3.35"/>
		</g>
	</g>
	<g id="Rectangle_1_copy_2_1_" display="inline">
		<g>
			<rect x="0.48" y="7.195" fill="#828282" width="15.84" height="2.885"/>
		</g>
	</g>
</g>
<g id="Group_2_copy_1_" display="none">
	<g id="Rounded_Rectangle_1" display="inline">
		<g>
			<path fill="#C9BB9E" d="M15.84,0H0.96C0.43,0,0,0.43,0,0.96V9.6c0,0.53,0.43,0.96,0.96,0.96h14.88c0.529,0,0.96-0.43,0.96-0.96
				V0.96C16.8,0.43,16.37,0,15.84,0z"/>
		</g>
	</g>
	<g id="Rectangle_1_copy_6" display="inline">
		<g>
			<path fill-rule="evenodd" clip-rule="evenodd" fill="#FFFFFF" d="M0.48,4.294h7.125V0.479H0.48V4.294z M9.195,0.479v3.814h7.125
				V0.479H9.195z M0.48,10.081h7.125V6.265H0.48V10.081z M9.195,10.081h7.125V6.265H9.195V10.081z"/>
		</g>
	</g>
	<g id="Rectangle_1_copy_6_1_" display="inline">
		<g>
			<path fill-rule="evenodd" clip-rule="evenodd" fill="#CC162C" d="M7.608,4.272H0.48v1.007h7.919V0.479l-0.792,0V4.272z
				 M5.768,3.667L0.48,0.479v0.694l4.114,2.494H5.768z M9.192,0.48l-0.792,0v4.799h7.92V4.272H9.192V0.48z M11.033,3.667h1.173
				l4.114-2.494V0.479L11.033,3.667z M0.48,6.288h7.128v3.792l0.792,0.001v-4.8H0.48V6.288z M0.48,9.385v0.695l5.288-3.188H4.594
				L0.48,9.385z M8.4,10.081l0.792-0.001V6.288h7.128V5.281H8.4V10.081z M11.033,6.892l5.287,3.188V9.385l-4.114-2.493H11.033z"/>
		</g>
	</g>
	<g id="Rectangle_1_copy_6_2_" display="inline">
		<g>
			<path fill-rule="evenodd" clip-rule="evenodd" fill="#04267D" d="M0.48,1.533v2.135h3.533L0.48,1.533z M7.106,3.413V0.479H2.258
				L7.106,3.413z M12.788,3.667h3.532V1.533L12.788,3.667z M9.694,0.479v2.934l4.849-2.934H9.694z M0.48,6.892v2.135l3.533-2.135
				H0.48z M7.106,10.081V7.146l-4.849,2.935H7.106z M16.32,9.027V6.892h-3.532L16.32,9.027z M9.694,10.081h4.849L9.694,7.146V10.081
				z"/>
		</g>
	</g>
</g>
<g id="Group_2_1_" display="none">
	<g id="Rounded_Rectangle_1_1_" display="inline">
		<g>
			<path fill="#C6C6C6" d="M15.84,0H0.96C0.43,0,0,0.43,0,0.96V9.6c0,0.53,0.43,0.96,0.96,0.96h14.88c0.529,0,0.96-0.43,0.96-0.96
				V0.96C16.8,0.43,16.37,0,15.84,0z"/>
		</g>
	</g>
	<g id="Rectangle_1_copy_6_3_" display="inline">
		<g>
			<path fill-rule="evenodd" clip-rule="evenodd" fill="#FFFFFF" d="M0.48,4.294h7.125V0.479H0.48V4.294z M9.195,0.479v3.814h7.125
				V0.479H9.195z M0.48,10.081h7.125V6.265H0.48V10.081z M9.195,10.081h7.125V6.265H9.195V10.081z"/>
		</g>
	</g>
	<g id="Rectangle_1_copy_6_4_" display="inline">
		<g>
			<path fill-rule="evenodd" clip-rule="evenodd" fill="#787878" d="M7.608,4.272H0.48v1.007h7.919V0.479l-0.792,0V4.272z
				 M5.768,3.667L0.48,0.479v0.694l4.114,2.494H5.768z M9.192,0.48l-0.792,0v4.799h7.92V4.272H9.192V0.48z M11.033,3.667h1.173
				l4.114-2.494V0.479L11.033,3.667z M0.48,6.288h7.128v3.792l0.792,0.001v-4.8H0.48V6.288z M0.48,9.385v0.695l5.288-3.188H4.594
				L0.48,9.385z M8.4,10.081l0.792-0.001V6.288h7.128V5.281H8.4V10.081z M11.033,6.892l5.287,3.188V9.385l-4.114-2.493H11.033z"/>
		</g>
	</g>
	<g id="Rectangle_1_copy_6_5_" display="inline">
		<g>
			<path fill-rule="evenodd" clip-rule="evenodd" fill="#6E6E6E" d="M0.48,1.533v2.135h3.533L0.48,1.533z M7.106,3.413V0.479H2.258
				L7.106,3.413z M12.788,3.667h3.532V1.533L12.788,3.667z M9.694,0.479v2.934l4.849-2.934H9.694z M0.48,6.892v2.135l3.533-2.135
				H0.48z M7.106,10.081V7.146l-4.849,2.935H7.106z M16.32,9.027V6.892h-3.532L16.32,9.027z M9.694,10.081h4.849L9.694,7.146V10.081
				z"/>
		</g>
	</g>
</g>
</svg>
