<?xml version="1.0" encoding="iso-8859-1"?>
<!-- Generator: Adobe Illustrator 16.0.0, SVG Export Plug-In . SVG Version: 6.00 Build 0)  -->
<!DOCTYPE svg PUBLIC "-//W3C//DTD SVG 1.1//EN" "http://www.w3.org/Graphics/SVG/1.1/DTD/svg11.dtd">
<svg version="1.1" xmlns="http://www.w3.org/2000/svg" xmlns:xlink="http://www.w3.org/1999/xlink" x="0px" y="0px" width="26px"
	 height="28px" viewBox="0 0 26 28" style="enable-background:new 0 0 26 28;" xml:space="preserve">
<g id="_x3C_Background_x3E__xA0_0_xA0_Image_1_" style="display:none;">
	
		<image style="display:inline;overflow:visible;" width="26" height="28" id="_x3C_Background_x3E__xA0_0_xA0_Image" xlink:href="51168C34.jpg" >
	</image>
</g>
<g id="Rounded_Rectangle_1_1_" style="enable-background:new    ;">
	<g id="Rounded_Rectangle_1">
		<g>
			<path style="fill-rule:evenodd;clip-rule:evenodd;fill:#5E5E5E;" d="M21.156,12.022V8.094h-0.021C20.918,3.587,17.387,0,13.049,0
				C8.713,0,5.182,3.587,4.964,8.094H4.943v3.929c-0.604,0.226-1.04,0.827-1.04,1.54v4.703h0c0,0.007,0,0.073,0,0.109
				C3.903,23.69,7.998,28,13.049,28c5.052,0,9.146-4.31,9.146-9.625c0-0.036,0-0.102,0-0.109v-0.005v-4.698
				C22.195,12.849,21.761,12.248,21.156,12.022z M14.732,22.158c0.045,0.261-0.056,0.482-0.229,0.482h-2.909
				c-0.172,0-0.273-0.222-0.229-0.482l0.417-2.421c-0.369-0.351-0.605-0.853-0.605-1.417c0-1.057,0.814-1.914,1.819-1.914
				s1.819,0.857,1.819,1.914c0,0.519-0.197,0.987-0.516,1.332L14.732,22.158z M18.35,8.651v0.208v3.063H7.749V8.65
				c0-0.093,0-0.185,0-0.196c0-3.038,2.373-5.501,5.3-5.501c2.928,0,5.301,2.463,5.301,5.501C18.35,8.467,18.35,8.559,18.35,8.651z"
				/>
		</g>
	</g>
</g>
<g id="Ellipse_1_1_" style="display:none;enable-background:new    ;">
	<g id="Ellipse_1" style="display:inline;">
		<g>
			<path style="fill-rule:evenodd;clip-rule:evenodd;fill:#5E5E5E;" d="M17.857,1.161c-4.499,0-8.146,3.688-8.146,8.236
				c0,0.992,0.182,1.938,0.5,2.818L-0.001,22.544v4.808h4.958v-2.967h2.833v-2.864h2.935L15,17.102
				c0.89,0.338,1.851,0.531,2.857,0.531c4.498,0,8.145-3.688,8.145-8.235C26.002,4.849,22.355,1.161,17.857,1.161z M20.184,9.857
				c-1.592,0-2.883-1.306-2.883-2.916s1.291-2.915,2.883-2.915c1.593,0,2.884,1.305,2.884,2.915S21.776,9.857,20.184,9.857z"/>
		</g>
	</g>
</g>
</svg>
