<?xml version="1.0" encoding="iso-8859-1"?>
<!-- Generator: Adobe Illustrator 16.0.0, SVG Export Plug-In . SVG Version: 6.00 Build 0)  -->
<!DOCTYPE svg PUBLIC "-//W3C//DTD SVG 1.1//EN" "http://www.w3.org/Graphics/SVG/1.1/DTD/svg11.dtd">
<svg version="1.1" xmlns="http://www.w3.org/2000/svg" xmlns:xlink="http://www.w3.org/1999/xlink" x="0px" y="0px" width="15px"
	 height="22px" viewBox="0 0 15 22" style="enable-background:new 0 0 15 22;" xml:space="preserve">
<g id="_x3C_Background_x3E__xA0_0_xA0_Image_1_" style="display:none;">
	
		<image style="display:inline;overflow:visible;" width="15" height="22" id="_x3C_Background_x3E__xA0_0_xA0_Image" xlink:href="23B453BE.jpg" >
	</image>
</g>
<g id="Rounded_Rectangle_1_1_" style="display:none;enable-background:new    ;">
	<g id="Rounded_Rectangle_1" style="display:inline;">
		<g>
			<path style="fill-rule:evenodd;clip-rule:evenodd;fill:#5E5E5E;" d="M14.191,9.73V7.132c0,0,0-0.062,0-0.092V6.704h-0.017
				c-0.169-3.463-2.913-6.22-6.285-6.22c-3.372,0-6.117,2.757-6.286,6.22H1.588V9.73C1.119,9.905,0.78,10.359,0.78,10.906v3.614h0
				c0,0.006,0,0.057,0,0.084C0.78,18.688,3.963,22,7.89,22c3.926,0,7.11-3.312,7.11-7.396c0-0.028,0-0.076,0-0.084
				c0-0.001,0-0.005,0-0.005v-3.609C15,10.359,14.66,9.904,14.191,9.73z M9.199,17.511c0.035,0.2-0.045,0.371-0.178,0.371H6.759
				c-0.134,0-0.212-0.171-0.177-0.371l0.324-1.86c-0.287-0.269-0.471-0.654-0.471-1.088c0-0.813,0.633-1.472,1.414-1.472
				c0.781,0,1.414,0.659,1.414,1.472c0,0.398-0.153,0.759-0.401,1.023L9.199,17.511z M12.011,7.132v2.514H3.77V7.292V7.131
				c0-0.071,0-0.141,0-0.15c0-2.334,1.845-4.227,4.121-4.227s4.121,1.893,4.121,4.227C12.011,6.99,12.011,7.061,12.011,7.132z"/>
		</g>
	</g>
</g>
<g id="Ellipse_1_1_" style="enable-background:new    ;">
	<g id="Ellipse_1">
		<g>
			<path style="fill-rule:evenodd;clip-rule:evenodd;fill:#5E5E5E;" d="M13.788,9.646H3.867L3.653,9.451
				C3.603,9.404,3.552,9.358,3.545,9.353C1.858,7.821,1.77,5.216,3.347,3.532c1.577-1.684,4.222-1.808,5.909-0.276
				c0.007,0.006,0.058,0.053,0.108,0.1l0.001,0l1.781,1.619l0.001-0.001c0.001,0.001,0.002,0.003,0.003,0.004
				c0.452,0.411,1.157,0.383,1.574-0.063c0.41-0.438,0.385-1.112-0.043-1.526l0.004-0.004l-0.023-0.021v0c0,0,0,0-0.001,0
				l-1.848-1.678c-0.001,0-0.002-0.002-0.003-0.002c0,0,0,0,0,0l-0.243-0.22l-0.012,0.012C7.937-0.673,4.044-0.45,1.708,2.044
				C-0.386,4.279-0.526,7.592,1.184,9.98c-0.244,0.231-0.404,0.556-0.404,0.926v3.614h0c0,0.006,0,0.057,0,0.084
				C0.78,18.688,3.963,22,7.89,22c3.926,0,7.11-3.312,7.11-7.396v-0.084c0-0.001,0-0.005,0-0.005v-3.609
				C15,10.21,14.457,9.646,13.788,9.646z M9.199,17.511c0.035,0.2-0.045,0.371-0.178,0.371H6.759c-0.134,0-0.212-0.171-0.177-0.371
				l0.324-1.86c-0.287-0.269-0.471-0.654-0.471-1.088c0-0.813,0.633-1.472,1.414-1.472c0.781,0,1.414,0.659,1.414,1.472
				c0,0.398-0.153,0.759-0.401,1.023L9.199,17.511z"/>
		</g>
	</g>
</g>
</svg>
