<?xml version="1.0" encoding="utf-8"?>
<!-- Generator: Adobe Illustrator 16.0.0, SVG Export Plug-In . SVG Version: 6.00 Build 0)  -->
<!DOCTYPE svg PUBLIC "-//W3C//DTD SVG 1.1//EN" "http://www.w3.org/Graphics/SVG/1.1/DTD/svg11.dtd">
<svg version="1.1" xmlns="http://www.w3.org/2000/svg" xmlns:xlink="http://www.w3.org/1999/xlink" x="0px" y="0px" width="15.36px"
	 height="15.36px" viewBox="0 0 15.36 15.36" enable-background="new 0 0 15.36 15.36" xml:space="preserve">
<g id="Logo_Profile_1_" display="none" enable-background="new    ">
	<g id="Logo_Profile" display="inline">
		<g>
			<path fill-rule="evenodd" clip-rule="evenodd" fill="#5F5E5E" d="M7.679,0C3.438,0,0,3.439,0,7.68
				c0,4.242,3.438,7.681,7.679,7.681s7.679-3.438,7.679-7.681C15.358,3.439,11.919,0,7.679,0z M11.959,13.484
				c-0.658-0.228-1.971-0.5-2.32-0.716c-0.458-0.281-0.311-1.821-0.311-1.821s0.289-0.772,0.524-1.215
				c0.303-0.565,0.622-1.517,0.622-1.517s0.311-0.221,0.311-0.608C10.786,7.222,10.475,7,10.475,7s0.116-1.074,0.116-1.821
				c0-1.569-1.008-2.428-2.819-2.428s-3.134,0.73-3.134,2.428C4.638,5.926,4.881,7,4.881,7S4.57,7.222,4.57,7.607
				c0,0.387,0.311,0.608,0.311,0.608s0.363,1.102,0.622,1.517c0.262,0.422,0.524,1.215,0.524,1.215s0.147,1.54-0.311,1.821
				c-0.35,0.216-1.66,0.488-2.319,0.715C1.619,12.168,0.46,10.063,0.46,7.68c0-3.987,3.232-7.219,7.218-7.219
				c3.987,0,7.218,3.232,7.218,7.219C14.897,10.063,13.739,12.169,11.959,13.484z"/>
		</g>
	</g>
</g>
<g id="Logo_Profile_copy_2_1_" display="none" enable-background="new    ">
	<g id="Logo_Profile_copy_2" display="inline">
		<g>
			<path fill-rule="evenodd" clip-rule="evenodd" fill="#07ACF1" d="M7.679,0C3.438,0,0,3.439,0,7.68
				c0,4.242,3.438,7.681,7.679,7.681s7.679-3.438,7.679-7.681C15.358,3.439,11.919,0,7.679,0z M11.959,13.484
				c-0.658-0.228-1.971-0.5-2.32-0.716c-0.458-0.281-0.311-1.821-0.311-1.821s0.289-0.772,0.524-1.215
				c0.303-0.565,0.622-1.517,0.622-1.517s0.311-0.221,0.311-0.608C10.786,7.222,10.475,7,10.475,7s0.116-1.074,0.116-1.821
				c0-1.569-1.008-2.428-2.819-2.428s-3.134,0.73-3.134,2.428C4.638,5.926,4.881,7,4.881,7S4.57,7.222,4.57,7.607
				c0,0.387,0.311,0.608,0.311,0.608s0.363,1.102,0.622,1.517c0.262,0.422,0.524,1.215,0.524,1.215s0.147,1.54-0.311,1.821
				c-0.35,0.216-1.66,0.488-2.319,0.715C1.619,12.168,0.46,10.063,0.46,7.68c0-3.987,3.232-7.219,7.218-7.219
				c3.987,0,7.218,3.232,7.218,7.219C14.897,10.063,13.739,12.169,11.959,13.484z"/>
		</g>
	</g>
</g>
<g id="Logo_Profile_copy_1_" display="none" enable-background="new    ">
	<g id="Logo_Profile_copy" display="inline">
		<g>
			<path fill-rule="evenodd" clip-rule="evenodd" fill="#07ACF1" d="M7.679,0C3.438,0,0,3.439,0,7.68
				c0,4.242,3.438,7.681,7.679,7.681s7.679-3.438,7.679-7.681C15.358,3.439,11.919,0,7.679,0z M7.679,14.9
				c-3.986,0-7.218-3.231-7.218-7.22c0-3.987,3.232-7.219,7.218-7.219c3.987,0,7.218,3.232,7.218,7.219
				C14.897,11.668,11.666,14.9,7.679,14.9z"/>
		</g>
	</g>
</g>
<g id="ru_1_" display="none" enable-background="new    ">
	<g id="ru" display="inline">
		<g>
			<path fill-rule="evenodd" clip-rule="evenodd" fill="#5F5E5E" d="M5.144,6.895V5.894H4.4v4.656h0.78V8.583
				c0-1.047,0.229-2.012,1.515-2.012c0.083,0,0.119,0,0.202,0.009V5.786C6.052,5.786,5.474,6.11,5.144,6.895z M7.679,0
				C3.438,0,0,3.439,0,7.68c0,4.242,3.438,7.681,7.679,7.681s7.679-3.438,7.679-7.681C15.358,3.439,11.919,0,7.679,0z M7.679,14.9
				c-3.986,0-7.218-3.231-7.218-7.22c0-3.987,3.232-7.219,7.218-7.219c3.987,0,7.218,3.232,7.218,7.219
				C14.897,11.668,11.666,14.9,7.679,14.9z M10.173,8.33c0,0.956-0.357,1.679-1.386,1.679c-0.799,0-0.991-0.451-0.991-1.119V5.894
				h-0.78v3.204c0,1.028,0.587,1.578,1.578,1.578c0.698,0,1.222-0.271,1.635-0.856v0.73h0.725V5.894h-0.78V8.33z"/>
		</g>
	</g>
</g>
<g id="ru_copy_1_" display="none" enable-background="new    ">
	<g id="ru_copy" display="inline">
		<g>
			<path fill-rule="evenodd" clip-rule="evenodd" fill="#07ACF1" d="M7.679,0C3.438,0,0,3.439,0,7.68
				c0,4.242,3.438,7.681,7.679,7.681s7.679-3.438,7.679-7.681C15.358,3.439,11.919,0,7.679,0z M7.679,14.9
				c-3.986,0-7.218-3.231-7.218-7.22c0-3.987,3.232-7.219,7.218-7.219c3.987,0,7.218,3.232,7.218,7.219
				C14.897,11.668,11.666,14.9,7.679,14.9z M5.144,6.895V5.894H4.4v4.656h0.78V8.583c0-1.047,0.229-2.012,1.515-2.012
				c0.083,0,0.119,0,0.202,0.009V5.786C6.052,5.786,5.474,6.11,5.144,6.895z M10.173,8.33c0,0.956-0.357,1.679-1.386,1.679
				c-0.799,0-0.991-0.451-0.991-1.119V5.894h-0.78v3.204c0,1.028,0.587,1.578,1.578,1.578c0.698,0,1.222-0.271,1.635-0.856v0.73
				h0.725V5.894h-0.78V8.33z"/>
		</g>
	</g>
</g>
<g id="en_1_" display="none" enable-background="new    ">
	<g id="en" display="inline">
		<g>
			<path fill-rule="evenodd" clip-rule="evenodd" fill="#5F5E5E" d="M5.423,5.758c-1.313,0-2.203,1.02-2.203,2.526
				c0,1.516,0.835,2.418,2.23,2.418c1.12,0,1.827-0.55,2.065-1.624H6.754c-0.221,0.704-0.597,0.992-1.276,0.992
				C4.56,10.071,4,9.475,4,8.483l0.009-0.054H7.57V8.321C7.57,6.977,6.983,5.758,5.423,5.758z M4.009,7.806
				C4.11,6.931,4.643,6.39,5.404,6.39c0.78,0,1.285,0.533,1.358,1.417H4.009z M7.679,0C3.438,0,0,3.439,0,7.68
				c0,4.242,3.438,7.681,7.679,7.681s7.679-3.438,7.679-7.681C15.358,3.439,11.919,0,7.679,0z M7.679,14.9
				c-3.986,0-7.218-3.231-7.218-7.22c0-3.987,3.232-7.219,7.218-7.219c3.987,0,7.218,3.232,7.218,7.219
				C14.897,11.668,11.666,14.9,7.679,14.9z M10.288,5.767c-0.726,0-1.221,0.28-1.615,0.849V5.894H7.938v4.656h0.779V8.114
				c0-0.921,0.331-1.679,1.35-1.679c0.982,0,1.02,0.631,1.02,1.371v2.743h0.779V7.455C11.866,6.39,11.444,5.767,10.288,5.767z"/>
		</g>
	</g>
</g>
<g id="en_copy_1_" enable-background="new    ">
	<g id="en_copy">
		<g>
			<path fill-rule="evenodd" clip-rule="evenodd" fill="#07ACF1" d="M7.679,0C3.438,0,0,3.439,0,7.68
				c0,4.242,3.438,7.681,7.679,7.681s7.679-3.438,7.679-7.681C15.358,3.439,11.919,0,7.679,0z M7.679,14.9
				c-3.986,0-7.218-3.231-7.218-7.22c0-3.987,3.232-7.219,7.218-7.219c3.987,0,7.218,3.232,7.218,7.219
				C14.897,11.668,11.666,14.9,7.679,14.9z M5.423,5.758c-1.313,0-2.203,1.02-2.203,2.526c0,1.516,0.835,2.418,2.23,2.418
				c1.12,0,1.827-0.55,2.065-1.624H6.754c-0.221,0.704-0.597,0.992-1.276,0.992C4.56,10.071,4,9.475,4,8.483l0.009-0.054H7.57V8.321
				C7.57,6.977,6.983,5.758,5.423,5.758z M4.009,7.806C4.11,6.931,4.643,6.39,5.404,6.39c0.78,0,1.285,0.533,1.358,1.417H4.009z
				 M10.288,5.767c-0.726,0-1.221,0.28-1.615,0.849V5.894H7.938v4.656h0.779V8.114c0-0.921,0.331-1.679,1.35-1.679
				c0.982,0,1.02,0.631,1.02,1.371v2.743h0.779V7.455C11.866,6.39,11.444,5.767,10.288,5.767z"/>
		</g>
	</g>
</g>
</svg>
