<svg version="1.1" id="Layer_1" xmlns="http://www.w3.org/2000/svg" xmlns:xlink="http://www.w3.org/1999/xlink" x="0px" y="0px"
	                                    width="20px" height="20px" viewBox="0 0 20 20" enable-background="new 0 0 20 20" xml:space="preserve">
                                        <g id="konfig.psd">
                                            <defs>
                                                <rect id="SVGID_1_" x="0" y="0" width="20" height="20"/>
                                            </defs>
                                            <clipPath id="SVGID_2_">
                                                <use xlink:href="#SVGID_1_"  overflow="visible"/>
                                            </clipPath>
                                            <g id="icon" clip-path="url(#SVGID_2_)">
                                                <g>
                                                    <path fill="#0096E2" d="M17.27,9.999c0-1.121,0.691-2.005,1.732-2.613c-0.188-0.625-0.436-1.225-0.742-1.789
                                                        c-1.168,0.305-2.111-0.152-2.906-0.944s-1.037-1.736-0.732-2.9c-0.564-0.305-1.166-0.553-1.793-0.74
                                                        c-0.609,1.04-1.711,1.729-2.834,1.729S7.771,2.052,7.161,1.012c-0.627,0.187-1.228,0.435-1.792,0.74
                                                        c0.305,1.165,0.062,2.108-0.732,2.9c-0.794,0.793-1.74,1.249-2.907,0.944C1.423,6.161,1.174,6.76,0.987,7.386
                                                        c1.042,0.608,1.732,1.493,1.732,2.613c0,1.12-0.691,2.22-1.732,2.827c0.188,0.625,0.436,1.225,0.742,1.789
                                                        c1.167-0.305,2.113-0.063,2.907,0.73s1.038,1.736,0.732,2.9c0.565,0.305,1.166,0.553,1.792,0.74
                                                        c0.61-1.039,1.71-1.729,2.833-1.729s2.225,0.689,2.834,1.729c0.627-0.188,1.229-0.436,1.793-0.74
                                                        c-0.305-1.164-0.063-2.107,0.732-2.9s1.74-1.25,2.906-0.945c0.307-0.563,0.555-1.162,0.742-1.789
                                                        C17.961,12.004,17.27,11.119,17.27,9.999z M9.994,13.908c-2.163,0-3.917-1.75-3.917-3.909c0-2.158,1.754-3.908,3.917-3.908
                                                        c2.164,0,3.918,1.75,3.918,3.908C13.912,12.158,12.158,13.908,9.994,13.908z"/>
                                                </g>
                                            </g>
                                        </g>
                                    </svg>