<svg version="1.1" id="Layer_1" xmlns="http://www.w3.org/2000/svg" xmlns:xlink="http://www.w3.org/1999/xlink" x="0px" y="0px" width="20px" height="20px" viewBox="0 0 20 20" enable-background="new 0 0 20 20" xml:space="preserve">
                                        <g id="list.psd">
                                            <defs>
                                                <rect id="SVGID_1_" y="0" width="20" height="20"/>
                                            </defs>
                                            <clipPath id="SVGID_2_">
                                                <use xlink:href="#SVGID_1_"  overflow="visible"/>
                                            </clipPath>
                                            <g id="CLIPBOARD" clip-path="url(#SVGID_2_)">
                                                <g>
                                                    <path fill-rule="evenodd" clip-rule="evenodd" fill="#0096E2" d="M16,0H4C3.15,0,2,1.111,2,2v16c0,0.889,1.15,2,2,2h12
                                                        c0.85,0,2-1.111,2-2V2C18,1.111,16.85,0,16,0z M16,17c0,0.49-0.531,1-1,1H5c-0.469,0-1-0.51-1-1V3c0-0.49,0.531-1,1-1h10
                                                        c0.469,0,1,0.51,1,1V17z M13,5H7C6.469,5,6,5.437,6,6c0,0.563,0.469,1,1,1h6c0.531,0,1-0.437,1-1C14,5.437,13.531,5,13,5z M13,9
                                                        H7c-0.531,0-1,0.437-1,1c0,0.564,0.469,1,1,1h6c0.531,0,1-0.436,1-1C14,9.437,13.531,9,13,9z M13,13H7c-0.531,0-1,0.438-1,1
                                                        c0,0.564,0.469,1,1,1h6c0.531,0,1-0.436,1-1C14,13.438,13.531,13,13,13z"/>
                                                </g>
                                            </g>
                                        </g>
                                    </svg>