<?xml version="1.0" encoding="utf-8"?>
<!-- Generator: Adobe Illustrator 16.0.0, SVG Export Plug-In . SVG Version: 6.00 Build 0)  -->
<!DOCTYPE svg PUBLIC "-//W3C//DTD SVG 1.1//EN" "http://www.w3.org/Graphics/SVG/1.1/DTD/svg11.dtd">
<svg version="1.1" xmlns="http://www.w3.org/2000/svg" xmlns:xlink="http://www.w3.org/1999/xlink" x="0px" y="0px" width="52px"
	 height="52px" viewBox="0 0 52 52" enable-background="new 0 0 52 52" xml:space="preserve">
<g id="GLOBE_1_1_" enable-background="new    ">
	<g id="GLOBE_1">
		<g>
			<path fill="#6E6E6E" d="M26,0C11.635,0,0,11.635,0,26c0,14.364,11.635,26,26,26c14.365,0,26-11.636,26-26
				C52,11.635,40.365,0,26,0z M14.083,42.781C8.84,39.054,5.417,32.923,5.417,26c0-1.668,0.195-3.293,0.574-4.842L10.833,26
				L9.75,32.5l4.333,4.333V42.781z M41.166,18.417c-2.805,0-5.416,1.083-5.416,1.083s-3.055,0.889-3.25,3.25
				c-0.336,4.063,1.084,5.417,1.084,5.417L39,31.417v10.54c-3.543,2.893-8.071,4.626-13,4.626c-2.329,0-4.561-0.379-6.652-1.094
				L24.917,32.5l-1.083-5.417c0,0-4.301-5.416-6.5-5.416c-2.199,0-3.25,3.25-3.25,3.25l-2.167-4.334l6.5-4.333l3.25-8.667
				l-0.401-1.614C22.782,5.601,24.364,5.417,26,5.417c1.809,0,3.564,0.238,5.232,0.671l-0.898,1.495l1.082,1.084h3.25l0.9-0.899
				c0.758,0.4,1.473,0.834,2.166,1.321L35.75,9.75l-2.166,2.167L35.75,13v1.083h-2.166v2.167c0,0,1.494,1.083,3.25,1.083
				c1.722,0,0.953-2.372,2.166-3.25c1.225-0.877,2.709-0.683,2.709-0.683l0.703,0.185c1.322,1.744,2.373,3.694,3.088,5.807V19.5
				C45.5,19.5,43.973,18.417,41.166,18.417z"/>
		</g>
	</g>
</g>
<g id="Rounded_Rectangle_1_1_" display="none" enable-background="new    ">
	<g id="Rounded_Rectangle_1" display="inline">
		<g>
			<path fill-rule="evenodd" clip-rule="evenodd" fill="#6E6E6E" d="M12.59,42h27.82c1.983,0,3.59-1.566,3.59-3.5V35
				c0-0.306-0.009-0.612,0-0.875c-0.027-1.016-0.432-2.914-1.176-3.859c-1.885-2.397-4.164-3.954-7.431-4.838l-3.06,10.447
				c0,0.962-0.809,1.75-1.795,1.75c-0.987,0-1.795-0.788-1.795-1.75v-8.313c0-1.207-1.006-2.188-2.244-2.188
				s-2.244,0.98-2.244,2.188v8.313c0,0.962-0.808,1.75-1.795,1.75s-1.795-0.788-1.795-1.75l-3.061-10.447
				c-3.266,0.893-5.545,2.44-7.43,4.838C9.431,31.211,9.027,33.109,9,34.125C9.009,34.388,9,34.694,9,35v3.5
				C9,40.434,10.606,42,12.59,42z M26.5,21.875c6.049,0,9.423-7.508,9.423-12.617C35.923,4.147,31.705,0,26.5,0
				s-9.423,4.147-9.423,9.258C17.077,14.367,20.344,21.875,26.5,21.875z M46.5,45h-40C5.119,45,4,46.119,4,47.5S5.119,50,6.5,50h40
				c1.381,0,2.5-1.119,2.5-2.5S47.881,45,46.5,45z"/>
		</g>
	</g>
</g>
</svg>
